<mxfile host="65bd71144e" modified="2021-01-13T12:26:21.042Z" agent="5.0 (Macintosh; Intel Mac OS X 10_14_6) AppleWebKit/537.36 (KHTML, like Gecko) Code/1.52.1 Chrome/83.0.4103.122 Electron/9.3.5 Safari/537.36" etag="-34qpljBhBNsoG8MaVsM" version="13.10.0" type="embed">
    <diagram id="yKp5CQcjfNolYZbuaR4e" name="Page-1">
        <mxGraphModel dx="1290" dy="1356" grid="1" gridSize="10" guides="1" tooltips="1" connect="1" arrows="1" fold="1" page="1" pageScale="1" pageWidth="827" pageHeight="1169" math="0" shadow="0">
            <root>
                <mxCell id="0"/>
                <mxCell id="1" parent="0"/>
                <mxCell id="25" value="" style="rounded=0;whiteSpace=wrap;html=1;fillColor=none;strokeColor=#999999;" parent="1" vertex="1">
                    <mxGeometry x="270" y="130" width="470" height="420" as="geometry"/>
                </mxCell>
                <mxCell id="42" style="edgeStyle=orthogonalEdgeStyle;rounded=0;orthogonalLoop=1;jettySize=auto;html=1;exitX=0;exitY=0.5;exitDx=0;exitDy=0;entryX=1;entryY=0.5;entryDx=0;entryDy=0;" parent="1" source="64" edge="1">
                    <mxGeometry relative="1" as="geometry">
                        <Array as="points">
                            <mxPoint x="220" y="360"/>
                            <mxPoint x="220" y="360"/>
                        </Array>
                        <mxPoint x="200" y="360" as="targetPoint"/>
                    </mxGeometry>
                </mxCell>
                <mxCell id="4" value="&lt;b&gt;GitHub&lt;/b&gt;&lt;br&gt;&lt;br&gt;Source Control" style="rounded=0;whiteSpace=wrap;html=1;fillColor=#1ba1e2;strokeColor=#006EAF;fontColor=#ffffff;" parent="1" vertex="1">
                    <mxGeometry x="354" y="203" width="120" height="60" as="geometry"/>
                </mxCell>
                <mxCell id="17" value="&lt;h1&gt;System Context Diagram for Belfrage CI/CD&lt;/h1&gt;&lt;p&gt;&lt;br&gt;&lt;/p&gt;" style="text;html=1;strokeColor=none;fillColor=none;spacing=5;spacingTop=-20;whiteSpace=wrap;overflow=hidden;rounded=0;" parent="1" vertex="1">
                    <mxGeometry x="7.5" y="10" width="572.5" height="100" as="geometry"/>
                </mxCell>
                <mxCell id="21" value="" style="group" parent="1" vertex="1" connectable="0">
                    <mxGeometry x="30" y="95" width="210" height="130" as="geometry"/>
                </mxCell>
                <mxCell id="22" value="&lt;br&gt;&lt;br&gt;&lt;br&gt;&lt;br&gt;&lt;b&gt;Engineer&lt;/b&gt;&lt;br&gt;&lt;br&gt;An Engineer using the Belfrage Platform" style="rounded=0;whiteSpace=wrap;html=1;fillColor=#0050ef;strokeColor=#001DBC;fontColor=#ffffff;" parent="21" vertex="1">
                    <mxGeometry width="210" height="130" as="geometry"/>
                </mxCell>
                <mxCell id="23" value="" style="shape=actor;whiteSpace=wrap;html=1;" parent="21" vertex="1">
                    <mxGeometry x="82.5" y="10" width="45" height="50" as="geometry"/>
                </mxCell>
                <mxCell id="26" value="&lt;b&gt;Monitor&lt;/b&gt;&lt;br&gt;&lt;br&gt;Realtime route status" style="rounded=0;whiteSpace=wrap;html=1;fillColor=#1ba1e2;strokeColor=#006EAF;fontColor=#ffffff;" parent="1" vertex="1">
                    <mxGeometry x="600" y="303" width="120" height="60" as="geometry"/>
                </mxCell>
                <mxCell id="27" value="&lt;b&gt;CCP&lt;br&gt;&lt;/b&gt;&lt;br&gt;Central Cache Processor" style="rounded=0;whiteSpace=wrap;html=1;fillColor=#1ba1e2;strokeColor=#006EAF;fontColor=#ffffff;" parent="1" vertex="1">
                    <mxGeometry x="600" y="396" width="120" height="60" as="geometry"/>
                </mxCell>
                <mxCell id="37" value="&lt;b&gt;Account&lt;/b&gt;" style="rounded=0;whiteSpace=wrap;html=1;fillColor=#bac8d3;strokeColor=#23445d;" parent="1" vertex="1">
                    <mxGeometry x="80" y="330" width="120" height="60" as="geometry"/>
                </mxCell>
                <mxCell id="44" value="&lt;font color=&quot;#666666&quot;&gt;&lt;i&gt;&lt;b&gt;requests JWK keys from&lt;/b&gt;&lt;br&gt;[HTTPS]&lt;/i&gt;&lt;/font&gt;" style="text;html=1;strokeColor=none;fillColor=none;align=center;verticalAlign=middle;whiteSpace=wrap;rounded=0;" parent="1" vertex="1">
                    <mxGeometry x="214" y="373" width="130" height="20" as="geometry"/>
                </mxCell>
                <mxCell id="54" value="container" style="rounded=0;whiteSpace=wrap;html=1;fillColor=#dae8fc;strokeColor=#6c8ebf;" parent="1" vertex="1">
                    <mxGeometry x="670" y="670" width="70" height="30" as="geometry"/>
                </mxCell>
                <mxCell id="55" value="system" style="rounded=0;whiteSpace=wrap;html=1;fillColor=#1ba1e2;strokeColor=#006EAF;fontColor=#ffffff;" parent="1" vertex="1">
                    <mxGeometry x="670" y="630" width="70" height="30" as="geometry"/>
                </mxCell>
                <mxCell id="56" value="person" style="rounded=0;whiteSpace=wrap;html=1;fillColor=#0050ef;strokeColor=#001DBC;fontColor=#ffffff;" parent="1" vertex="1">
                    <mxGeometry x="670" y="590" width="70" height="30" as="geometry"/>
                </mxCell>
                <mxCell id="57" value="external system" style="rounded=0;whiteSpace=wrap;html=1;fillColor=#bac8d3;strokeColor=#23445d;" parent="1" vertex="1">
                    <mxGeometry x="670" y="710" width="70" height="30" as="geometry"/>
                </mxCell>
                <mxCell id="58" value="&lt;b&gt;Legend&lt;/b&gt;" style="text;html=1;strokeColor=none;fillColor=none;align=center;verticalAlign=middle;whiteSpace=wrap;rounded=0;" parent="1" vertex="1">
                    <mxGeometry x="670" y="565" width="70" height="20" as="geometry"/>
                </mxCell>
                <mxCell id="62" style="edgeStyle=orthogonalEdgeStyle;rounded=0;orthogonalLoop=1;jettySize=auto;html=1;" parent="1" source="22" target="4" edge="1">
                    <mxGeometry relative="1" as="geometry">
                        <Array as="points">
                            <mxPoint x="414" y="160"/>
                        </Array>
                    </mxGeometry>
                </mxCell>
                <mxCell id="63" value="&lt;b&gt;Belfrage&lt;/b&gt;&lt;br&gt;&lt;br&gt;A routing and resiliency layer" style="rounded=0;whiteSpace=wrap;html=1;fillColor=#1ba1e2;strokeColor=#006EAF;fontColor=#ffffff;" parent="1" vertex="1">
                    <mxGeometry x="600" y="180" width="120" height="60" as="geometry"/>
                </mxCell>
                <mxCell id="70" style="edgeStyle=orthogonalEdgeStyle;rounded=0;orthogonalLoop=1;jettySize=auto;html=1;" parent="1" source="64" target="65" edge="1">
                    <mxGeometry relative="1" as="geometry"/>
                </mxCell>
                <mxCell id="74" style="edgeStyle=orthogonalEdgeStyle;rounded=0;orthogonalLoop=1;jettySize=auto;html=1;entryX=0.5;entryY=1;entryDx=0;entryDy=0;" parent="1" source="64" target="4" edge="1">
                    <mxGeometry relative="1" as="geometry"/>
                </mxCell>
                <mxCell id="64" value="&lt;b&gt;Jenkins&lt;/b&gt;&lt;br&gt;&lt;br&gt;Continuous Integration" style="rounded=0;whiteSpace=wrap;html=1;fillColor=#1ba1e2;strokeColor=#006EAF;fontColor=#ffffff;" parent="1" vertex="1">
                    <mxGeometry x="354" y="330" width="120" height="60" as="geometry"/>
                </mxCell>
                <mxCell id="66" style="edgeStyle=orthogonalEdgeStyle;rounded=0;orthogonalLoop=1;jettySize=auto;html=1;entryX=0;entryY=0.633;entryDx=0;entryDy=0;entryPerimeter=0;" parent="1" source="65" target="63" edge="1">
                    <mxGeometry relative="1" as="geometry"/>
                </mxCell>
                <mxCell id="71" style="edgeStyle=orthogonalEdgeStyle;rounded=0;orthogonalLoop=1;jettySize=auto;html=1;" parent="1" source="65" target="27" edge="1">
                    <mxGeometry relative="1" as="geometry"/>
                </mxCell>
                <mxCell id="72" style="edgeStyle=orthogonalEdgeStyle;rounded=0;orthogonalLoop=1;jettySize=auto;html=1;entryX=0;entryY=0.5;entryDx=0;entryDy=0;" parent="1" source="65" target="26" edge="1">
                    <mxGeometry relative="1" as="geometry"/>
                </mxCell>
                <mxCell id="65" value="&lt;b&gt;Cosmos&lt;/b&gt;&lt;br&gt;&lt;br&gt;" style="rounded=0;whiteSpace=wrap;html=1;fillColor=#1ba1e2;strokeColor=#006EAF;fontColor=#ffffff;" parent="1" vertex="1">
                    <mxGeometry x="354" y="476" width="120" height="60" as="geometry"/>
                </mxCell>
                <mxCell id="73" value="&lt;i&gt;&lt;font color=&quot;#666666&quot;&gt;&lt;b&gt;creates a release for&lt;br&gt;&lt;/b&gt;[HTTPS]&lt;/font&gt;&lt;/i&gt;" style="text;html=1;strokeColor=none;fillColor=none;align=center;verticalAlign=middle;whiteSpace=wrap;rounded=0;" parent="1" vertex="1">
                    <mxGeometry x="490" y="516" width="130" height="20" as="geometry"/>
                </mxCell>
                <mxCell id="75" value="&lt;font color=&quot;#666666&quot;&gt;&lt;i&gt;&lt;b&gt;Downloads source files from&lt;/b&gt;&lt;br&gt;[SSH]&lt;br&gt;&lt;/i&gt;&lt;/font&gt;" style="text;html=1;strokeColor=none;fillColor=none;align=center;verticalAlign=middle;whiteSpace=wrap;rounded=0;" parent="1" vertex="1">
                    <mxGeometry x="290" y="290" width="130" height="20" as="geometry"/>
                </mxCell>
                <mxCell id="76" value="&lt;font color=&quot;#666666&quot;&gt;&lt;i&gt;&lt;b&gt;Uploads to the repository&lt;/b&gt;&lt;br&gt;&lt;b&gt;[&lt;/b&gt;HTTPS]&lt;br&gt;&lt;/i&gt;&lt;/font&gt;" style="text;html=1;strokeColor=none;fillColor=none;align=center;verticalAlign=middle;whiteSpace=wrap;rounded=0;" parent="1" vertex="1">
                    <mxGeometry x="291" y="439" width="130" height="20" as="geometry"/>
                </mxCell>
            </root>
        </mxGraphModel>
    </diagram>
</mxfile>
